<?xml version="1.0" encoding="utf-8"?>
<!-- Generator: Adobe Illustrator 23.1.0, SVG Export Plug-In . SVG Version: 6.00 Build 0)  -->
<svg version="1.1" id="Layer_1" xmlns="http://www.w3.org/2000/svg" xmlns:xlink="http://www.w3.org/1999/xlink" x="0px" y="0px"
	 viewBox="0 0 800 600" style="enable-background:new 0 0 800 600;" xml:space="preserve">
<style type="text/css">
	.st0{fill-rule:evenodd;clip-rule:evenodd;fill:none;}
	.st1{fill-rule:evenodd;clip-rule:evenodd;fill:#F4B183;}
	.st2{clip-path:url(#SVGID_4_);fill-rule:evenodd;clip-rule:evenodd;fill:#F8CBAD;}
	.st3{fill-rule:evenodd;clip-rule:evenodd;fill:#ED7D31;}
	.st4{fill:#ED7D31;}
	.st5{fill:#F4B183;}
	.st6{fill-rule:evenodd;clip-rule:evenodd;fill:#F8CBAD;}
	.st7{fill:#F8CBAD;}
	.st8{font-family:'Hanwha_R';}
	.st9{font-size:45.2954px;}
	.st10{fill:#FFFFFF;}
	.st11{font-family:'Hanwha_L';}
	.st12{font-size:26.4223px;}
</style>
<g>
	<g>
		<defs>
			<polygon id="SVGID_1_" points="-62,648 863,648 863,-56 -62,-56 -62,648 			"/>
		</defs>
		<clipPath id="SVGID_2_">
			<use xlink:href="#SVGID_1_"  style="overflow:visible;"/>
		</clipPath>
	</g>
	<polygon class="st0" points="-62,648 863,648 863,-56 -62,-56 -62,648 	"/>
	<g>
		<g>
			<path class="st1" d="M401.36,69.08c134.9,0,244.27,109.9,244.27,245.48c0,43.09-11.29,85.42-32.73,122.74l-74.04-42.96
				c43.84-76.32,17.83-173.9-58.11-217.96c-24.14-14-51.52-21.38-79.39-21.38L401.36,69.08z"/>
			<g>
				<defs>
					<polygon id="SVGID_3_" points="-62,651 863,651 863,-53 -62,-53 -62,651 					"/>
				</defs>
				<clipPath id="SVGID_4_">
					<use xlink:href="#SVGID_3_"  style="overflow:visible;"/>
				</clipPath>
				<path class="st2" d="M612.9,437.29c-67.45,117.41-216.84,157.64-333.67,89.85c-37.13-21.55-67.97-52.53-89.41-89.85l74.04-42.96
					c43.84,76.32,140.95,102.46,216.89,58.4c24.14-14,44.18-34.15,58.11-58.4L612.9,437.29z"/>
			</g>
		</g>
		<path class="st3" d="M189.82,437.29c-67.45-117.41-27.42-267.54,89.41-335.33c37.13-21.55,79.26-32.89,122.13-32.89l0,85.92
			c-87.69,0-158.77,71.44-158.77,159.56c0,28.01,7.34,55.52,21.27,79.78L189.82,437.29z"/>
	</g>
	<polygon class="st0" points="-62,648 863,648 863,-56 -62,-56 -62,648 	"/>
	<g>
		<defs>
			<polygon id="SVGID_5_" points="-62,648 863,648 863,-56 -62,-56 -62,648 			"/>
		</defs>
		<clipPath id="SVGID_6_">
			<use xlink:href="#SVGID_5_"  style="overflow:visible;"/>
		</clipPath>
	</g>
	<g>
		<polygon class="st3" points="400.77,43.82 453.91,111.94 400.77,180.05 400.77,43.82 		"/>
		<polygon class="st4" points="400.77,43.82 453.91,111.94 400.77,180.05 400.77,43.82 		"/>
	</g>
	<g>
		<polygon class="st1" points="634.11,446.53 550.48,461.77 517.82,381.18 634.11,446.53 		"/>
		<polygon class="st5" points="634.11,446.53 550.48,461.77 517.82,381.18 634.11,446.53 		"/>
	</g>
	<g>
		<polygon class="st6" points="168.55,448.82 204.28,369.61 287.26,388.23 168.55,448.82 		"/>
		<polygon class="st7" points="168.55,448.82 204.28,369.61 287.26,388.23 168.55,448.82 		"/>
	</g>
	<text transform="matrix(0.973 0 0 1 314.7017 321.8721)" class="st8 st9">품질철학</text>
	<text transform="matrix(0.973 0 0 1 199.7476 223.7632)" class="st10 st11 st12">자율</text>
	<text transform="matrix(0.973 0 0 1 539.21 224.3901)" class="st10 st11 st12">자부심</text>
	<text transform="matrix(0.973 0 0 1 322.8481 521.3564)" class="st10 st11 st12">고객과의 신뢰</text>
</g>
</svg>
