<?xml version="1.0" encoding="utf-8"?>
<!-- Generator: Adobe Illustrator 23.1.0, SVG Export Plug-In . SVG Version: 6.00 Build 0)  -->
<svg version="1.1" id="Layer_1" xmlns="http://www.w3.org/2000/svg" xmlns:xlink="http://www.w3.org/1999/xlink" x="0px" y="0px"
	 viewBox="0 0 150 50" style="enable-background:new 0 0 150 50;" xml:space="preserve">
<style type="text/css">
	.st0{fill:#F6BA81;}
	.st1{fill:#F39E50;}
	.st2{fill:#EC7000;}
	.st3{fill:#231815;}
</style>
<path class="st0" d="M21.29,25.63c-0.72-6.5,6.1-11.72,15.22-11.64c9.12,0.07,17.09,5.4,17.81,11.89
	c0.71,6.51-6.09,11.71-15.21,11.64C29.98,37.45,22.01,32.12,21.29,25.63 M56.01,27.64c-0.82-8.06-10-14.66-20.49-14.75
	C25.02,12.81,17.18,19.27,18,27.33c0.82,8.06,10,14.66,20.5,14.75C48.99,42.16,56.84,35.7,56.01,27.64"/>
<path class="st1" d="M40.17,42.24c-5.17,5.41-13.47,5.85-18.54,1c-5.07-4.85-4.98-13.16,0.19-18.56c5.17-5.4,13.47-5.85,18.53-1
	C45.42,28.53,45.34,36.84,40.17,42.24 M21.01,24.51c-6.01,6.28-6.11,15.94-0.22,21.57c5.89,5.64,15.54,5.11,21.54-1.16
	c6.01-6.28,6.11-15.94,0.22-21.57C36.67,17.71,27.02,18.24,21.01,24.51"/>
<path class="st2" d="M21.56,4.3c10.75-4.03,21.39,0.05,23.75,9.1c2.37,9.06-4.43,19.67-15.19,23.7c-10.75,4.03-21.39-0.04-23.75-9.1
	C4.01,18.94,10.81,8.33,21.56,4.3 M11.57,7.76C0.42,16.59-2.42,29.39,5.23,36.34c7.65,6.96,22.9,5.43,34.06-3.4
	c11.16-8.83,14-21.63,6.34-28.58C37.97-2.6,22.73-1.07,11.57,7.76"/>
<path class="st3" d="M75.88,19.66H63.57v-1.97h12.31V19.66z M69.73,28.31c-1.56,0-2.82-0.39-3.8-1.18
	c-0.98-0.78-1.46-1.73-1.46-2.83c0-1.08,0.49-2.02,1.46-2.8c0.98-0.78,2.24-1.18,3.8-1.18s2.82,0.39,3.8,1.18
	c0.98,0.79,1.46,1.72,1.46,2.8c0,1.1-0.49,2.04-1.46,2.83C72.55,27.92,71.28,28.31,69.73,28.31 M70.67,32.84h10.64v2.11H70
	c-2.44,0-3.66-1.14-3.66-3.41v-2.2h2.75v1.88C69.09,32.3,69.61,32.84,70.67,32.84 M66.57,14.99h6.32v1.99h-6.32V14.99z M69.73,26.39
	c0.72,0,1.33-0.2,1.84-0.6c0.51-0.4,0.77-0.89,0.77-1.49c0-0.58-0.26-1.07-0.77-1.46c-0.51-0.4-1.12-0.6-1.84-0.6
	c-0.72,0-1.33,0.2-1.84,0.6c-0.51,0.4-0.77,0.88-0.77,1.46c0,0.59,0.25,1.09,0.77,1.49C68.4,26.19,69.01,26.39,69.73,26.39
	 M81.22,20.37h2.84v2.15h-2.84v6.93h-2.72V15.34h2.72V20.37z"/>
<path class="st3" d="M91.19,28.2c-0.98-0.17-1.81-0.53-2.5-1.1c-0.95-0.78-1.42-1.71-1.42-2.79c0-1.08,0.49-2.02,1.46-2.8
	c0.98-0.78,2.24-1.18,3.8-1.18c1.56,0,2.82,0.39,3.8,1.18c0.98,0.79,1.47,1.72,1.47,2.8c0,1.08-0.47,2.01-1.42,2.79
	c-0.67,0.55-1.49,0.92-2.45,1.1v2.08h3.04c2.75,0,4.12-1.06,4.12-3.18V15.34h2.72v6.59h2.84v2.17h-2.84v10.89h-2.72v-3.68
	c-0.82,0.73-2.04,1.1-3.66,1.1H85.91v-2.13h5.29V28.2z M98.65,19.66H86.34v-1.97h12.31V19.66z M89.38,14.99h6.32v1.99h-6.32V14.99z
	 M92.54,26.39c0.72,0,1.33-0.2,1.84-0.6c0.51-0.4,0.77-0.89,0.77-1.49c0-0.58-0.26-1.07-0.77-1.46c-0.51-0.4-1.13-0.6-1.84-0.6
	c-0.72,0-1.33,0.2-1.84,0.6c-0.51,0.4-0.77,0.89-0.77,1.46c0,0.59,0.25,1.09,0.77,1.49C91.21,26.19,91.82,26.39,92.54,26.39"/>
<path class="st3" d="M110.51,21.38c0-1.6,0.73-2.96,2.2-4.08c1.46-1.12,3.41-1.68,5.84-1.68c2.43,0,4.37,0.56,5.83,1.68
	c1.46,1.12,2.2,2.48,2.2,4.08c0,1.6-0.73,2.96-2.2,4.07c-1.17,0.9-2.65,1.44-4.44,1.63v3.71h8.65v2.17h-20.07v-2.17h8.63v-3.71
	c-1.79-0.18-3.26-0.72-4.44-1.63C111.24,24.34,110.51,22.98,110.51,21.38 M123.76,21.38c0-1.05-0.49-1.92-1.47-2.61
	c-0.98-0.69-2.23-1.03-3.75-1.03c-1.54,0-2.8,0.34-3.77,1.03c-0.97,0.69-1.45,1.56-1.45,2.61c0,1.05,0.48,1.92,1.45,2.61
	c0.97,0.69,2.22,1.03,3.77,1.03c1.52,0,2.78-0.34,3.75-1.03C123.27,23.3,123.76,22.43,123.76,21.38"/>
<path class="st3" d="M138.01,16.87c0,2.78,0.63,4.92,1.9,6.43c1.01,1.19,2.08,1.97,3.2,2.33v2.13c-1.76-0.27-3.39-1.17-4.9-2.68
	c-0.61-0.61-1.13-1.3-1.56-2.08c-0.43,0.78-0.95,1.47-1.56,2.08c-1.51,1.51-3.14,2.4-4.9,2.68v-2.13c1.13-0.37,2.2-1.14,3.2-2.33
	c1.27-1.51,1.9-3.65,1.9-6.43v-1.24h2.7V16.87z M138.63,32.82h10.64v2.13h-11.3c-2.44,0-3.66-1.14-3.66-3.41v-3.04h2.75v2.7
	C137.05,32.28,137.58,32.82,138.63,32.82 M146.32,15.34h2.72v14.12h-2.72v-5.67h-4.9V21.7h4.9v-1.92h-4.9v-2.08h4.9V15.34z"/>
</svg>
